HIERARCHY
ROOT Cow_ROOTSHJnt
{
	OFFSET 0.000000 66.749710 104.418190
	CHANNELS 6 Xposition Yposition Zposition Xrotation Yrotation Zrotation
	JOINT Cow_Spine_01SHJnt
	{
		OFFSET 0.000000 -20.599148 -0.645164
		CHANNELS 3 Xrotation Yrotation Zrotation
		JOINT Cow_Spine_02SHJnt
		{
			OFFSET -0.000000 -20.593330 -0.659470
			CHANNELS 3 Xrotation Yrotation Zrotation
			JOINT Cow_Spine_03SHJnt
			{
				OFFSET -0.000000 -20.606550 -0.983307
				CHANNELS 3 Xrotation Yrotation Zrotation
				JOINT Cow_Spine_04SHJnt
				{
					OFFSET -0.000000 -20.599676 1.374176
					CHANNELS 3 Xrotation Yrotation Zrotation
					JOINT Cow_Spine_TopSHJnt
					{
						OFFSET -0.000000 -20.599678 0.913795
						CHANNELS 3 Xrotation Yrotation Zrotation
						JOINT Cow_l_Clavicle_01_01SHJnt
						{
							OFFSET 11.171912 0.000000 0.000000
							CHANNELS 3 Xrotation Yrotation Zrotation
							JOINT Cow_l_FrontLeg_HipSHJnt
							{
								OFFSET 7.976342 -4.953094 -13.093445
								CHANNELS 3 Xrotation Yrotation Zrotation
								JOINT Cow_l_FrontLeg_Knee1SHJnt
								{
									OFFSET 0.000006 -3.929440 -54.085663
									CHANNELS 3 Xrotation Yrotation Zrotation
									JOINT Cow_l_FrontLeg_Knee2SHJnt
									{
										OFFSET 0.000000 1.964958 -22.377888
										CHANNELS 3 Xrotation Yrotation Zrotation
										JOINT Cow_l_FrontLeg_AnkleSHJnt
										{
											OFFSET 0.000000 -0.663105 -5.827117
											CHANNELS 3 Xrotation Yrotation Zrotation
											JOINT Cow_l_FrontLeg_BallSHJnt
											{
												OFFSET 0.000006 -5.970051 -9.033520
												CHANNELS 3 Xrotation Yrotation Zrotation
												JOINT Cow_l_FrontLeg_ToeSHJnt
												{
													OFFSET 0.000006 -7.439106 -0.000235
													CHANNELS 3 Xrotation Yrotation Zrotation
													End Site
													{
														OFFSET 7.439106 0.000004 0.000000
													}
												}
											}
										}
									}
								}
							}
						}
						JOINT Cow_r_Clavicle_01_01SHJnt
						{
							OFFSET -11.171912 0.000000 0.000000
							CHANNELS 3 Xrotation Yrotation Zrotation
							JOINT Cow_r_FrontLeg_HipSHJnt
							{
								OFFSET -7.976342 -4.953094 -13.093445
								CHANNELS 3 Xrotation Yrotation Zrotation
								JOINT Cow_r_FrontLeg_Knee1SHJnt
								{
									OFFSET 0.000006 -3.929440 -54.085663
									CHANNELS 3 Xrotation Yrotation Zrotation
									JOINT Cow_r_FrontLeg_Knee2SHJnt
									{
										OFFSET 0.000000 1.964958 -22.377888
										CHANNELS 3 Xrotation Yrotation Zrotation
										JOINT Cow_r_FrontLeg_AnkleSHJnt
										{
											OFFSET 0.000000 -0.663105 -5.827118
											CHANNELS 3 Xrotation Yrotation Zrotation
											JOINT Cow_r_FrontLeg_BallSHJnt
											{
												OFFSET 0.000006 -5.970051 -9.033520
												CHANNELS 3 Xrotation Yrotation Zrotation
												JOINT Cow_r_FrontLeg_ToeSHJnt
												{
													OFFSET 0.000006 -7.439106 -0.000235
													CHANNELS 3 Xrotation Yrotation Zrotation
													End Site
													{
														OFFSET 7.439106 0.000004 0.000000
													}
												}
											}
										}
									}
								}
							}
						}
						JOINT Cow_Neck_01SHJnt
						{
							OFFSET 0.000000 -25.141075 -3.042923
							CHANNELS 3 Xrotation Yrotation Zrotation
							JOINT Cow_Neck_02SHJnt
							{
								OFFSET -0.000000 -19.440186 5.198975
								CHANNELS 3 Xrotation Yrotation Zrotation
								JOINT Cow_Neck_TopSHJnt
								{
									OFFSET -0.000000 -15.102203 2.823219
									CHANNELS 3 Xrotation Yrotation Zrotation
									JOINT Cow_Head_JawSHJnt
									{
										OFFSET 0.000000 -35.995033 -11.047020
										CHANNELS 3 Xrotation Yrotation Zrotation
										JOINT Cow_Head_JawEndSHJnt
										{
											OFFSET 0.000001 -14.239838 -8.004066
											CHANNELS 3 Xrotation Yrotation Zrotation
											End Site
											{
												OFFSET 0.000001 -14.351303 -7.802444
											}
										}
									}
									JOINT Cow_Head_TopSHJnt
									{
										OFFSET -0.000001 -27.576538 24.239853
										CHANNELS 3 Xrotation Yrotation Zrotation
										JOINT Cow_l_Ear_01_01SHJnt
										{
											OFFSET 14.495198 16.691696 -8.068298
											CHANNELS 3 Xrotation Yrotation Zrotation
											JOINT Cow_l_Ear_01_02SHJnt
											{
												OFFSET 6.722663 2.771584 1.751846
												CHANNELS 3 Xrotation Yrotation Zrotation
												JOINT Cow_l_Ear_01_03SHJnt
												{
													OFFSET 10.716763 -0.206581 1.540665
													CHANNELS 3 Xrotation Yrotation Zrotation
													End Site
													{
														OFFSET 0.679575 -10.457191 -2.729607
													}
												}
											}
										}
										JOINT Cow_r_Ear_01_01SHJnt
										{
											OFFSET -14.495194 16.691696 -8.068306
											CHANNELS 3 Xrotation Yrotation Zrotation
											JOINT Cow_r_Ear_01_02SHJnt
											{
												OFFSET -6.722663 2.771584 1.751839
												CHANNELS 3 Xrotation Yrotation Zrotation
												JOINT Cow_r_Ear_01_03SHJnt
												{
													OFFSET -10.716763 -0.206581 1.540665
													CHANNELS 3 Xrotation Yrotation Zrotation
													End Site
													{
														OFFSET -0.679575 -10.457191 -2.729607
													}
												}
											}
										}
									}
								}
							}
							JOINT Cow_NeckSkin_01_01SHJnt
							{
								OFFSET 0.000001 -3.570503 -28.699036
								CHANNELS 3 Xrotation Yrotation Zrotation
								JOINT Cow_NeckSkin_01_02SHJnt
								{
									OFFSET 0.000001 -3.287460 -13.726460
									CHANNELS 3 Xrotation Yrotation Zrotation
									End Site
									{
										OFFSET 0.000000 -13.726448 3.287464
									}
								}
							}
						}
					}
				}
			}
		}
	}
	JOINT Cow_l_HindLeg_HipSHJnt
	{
		OFFSET 22.626928 3.434624 -17.868790
		CHANNELS 3 Xrotation Yrotation Zrotation
		JOINT Cow_l_HindLeg_Knee1SHJnt
		{
			OFFSET -4.433996 11.629982 -42.020042
			CHANNELS 3 Xrotation Yrotation Zrotation
			JOINT Cow_l_HindLeg_Knee2SHJnt
			{
				OFFSET 0.572979 -5.223473 -32.422234
				CHANNELS 3 Xrotation Yrotation Zrotation
				JOINT Cow_l_HindLeg_AnkleSHJnt
				{
					OFFSET 0.961411 -2.095169 -7.270233
					CHANNELS 3 Xrotation Yrotation Zrotation
					JOINT Cow_l_HindLeg_BallSHJnt
					{
						OFFSET 0.000000 -3.795708 -4.836911
						CHANNELS 3 Xrotation Yrotation Zrotation
						JOINT Cow_l_HindLeg_ToeSHJnt
						{
							OFFSET 0.000000 -6.175804 0.000002
							CHANNELS 3 Xrotation Yrotation Zrotation
							End Site
							{
								OFFSET 6.175808 0.000000 0.000000
							}
						}
					}
				}
			}
		}
	}
	JOINT Cow_r_HindLeg_HipSHJnt
	{
		OFFSET -22.626928 3.434624 -17.868790
		CHANNELS 3 Xrotation Yrotation Zrotation
		JOINT Cow_r_HindLeg_Knee1SHJnt
		{
			OFFSET 4.434002 11.629982 -42.020042
			CHANNELS 3 Xrotation Yrotation Zrotation
			JOINT Cow_r_HindLeg_Knee2SHJnt
			{
				OFFSET -0.572975 -5.223473 -32.422234
				CHANNELS 3 Xrotation Yrotation Zrotation
				JOINT Cow_r_HindLeg_AnkleSHJnt
				{
					OFFSET -0.961411 -2.095169 -7.270234
					CHANNELS 3 Xrotation Yrotation Zrotation
					JOINT Cow_r_HindLeg_BallSHJnt
					{
						OFFSET 0.000000 -3.795708 -4.836910
						CHANNELS 3 Xrotation Yrotation Zrotation
						JOINT Cow_r_HindLeg_ToeSHJnt
						{
							OFFSET 0.000000 -6.175804 0.000002
							CHANNELS 3 Xrotation Yrotation Zrotation
							End Site
							{
								OFFSET 6.175806 0.000000 0.000001
							}
						}
					}
				}
			}
		}
	}
	JOINT Cow_Tail_01_01SHJnt
	{
		OFFSET 0.000000 20.837936 23.982246
		CHANNELS 3 Xrotation Yrotation Zrotation
		JOINT Cow_Tail_01_02SHJnt
		{
			OFFSET -0.000000 7.960037 -11.072281
			CHANNELS 3 Xrotation Yrotation Zrotation
			JOINT Cow_Tail_01_03SHJnt
			{
				OFFSET -0.000000 2.666931 -14.319489
				CHANNELS 3 Xrotation Yrotation Zrotation
				JOINT Cow_Tail_01_04SHJnt
				{
					OFFSET -0.000000 -1.425102 -14.386597
					CHANNELS 3 Xrotation Yrotation Zrotation
					JOINT Cow_Tail_01_05SHJnt
					{
						OFFSET -0.000000 -1.119919 -14.413574
						CHANNELS 3 Xrotation Yrotation Zrotation
						JOINT Cow_Tail_01_06SHJnt
						{
							OFFSET -0.000000 0.772911 -13.741093
							CHANNELS 3 Xrotation Yrotation Zrotation
							JOINT Cow_Tail_01_07SHJnt
							{
								OFFSET -0.000000 3.111671 -14.118168
								CHANNELS 3 Xrotation Yrotation Zrotation
								End Site
								{
									OFFSET -0.000000 14.118164 3.111679
								}
							}
						}
					}
				}
			}
		}
	}
	JOINT Cow_Udder_01_01SHJnt
	{
		OFFSET 0.000000 -7.188259 -41.393276
		CHANNELS 3 Xrotation Yrotation Zrotation
		JOINT Cow_Udder_01_02SHJnt
		{
			OFFSET 0.000001 3.137054 -13.240067
			CHANNELS 3 Xrotation Yrotation Zrotation
			End Site
			{
				OFFSET 0.000001 13.240070 3.137051
			}
		}
	}
}
MOTION
Frames: 5
Frame Time: 0.040000
2.500000 66.749702 103.004608 -0.000000 0.000000 -0.000000 -2.930039 0.478712 -9.270413 2.203183 -0.082551 6.153456 4.329919 0.390373 6.250050 7.266562 1.169924 6.081987 -10.909834 0.000002 -9.326649 0.000000 0.000000 -0.000000 -16.817182 3.369965 2.177867 2.579260 0.000009 -0.000000 -17.560876 0.718814 -2.410501 31.859858 -3.195794 1.318854 0.000000 -0.000045 -0.000000 0.000000 0.000000 -0.000000 33.473709 19.478902 -6.452375 -23.775344 -27.596148 -0.609231 5.379197 -0.000005 -0.000003 -23.991355 9.122358 0.779440 9.387964 -1.752386 0.346521 0.000000 -0.000035 -0.000000 0.000000 -0.000000 0.000000 -0.217855 -0.000002 0.000006 -0.004018 0.000001 -0.000003 8.031138 0.000001 0.000001 -23.549075 0.000005 -0.000008 -0.000002 -0.000000 0.000000 -0.000002 -0.000000 -0.000000 -0.000000 0.000001 0.000001 0.000004 -0.000000 0.000002 0.000000 -0.000001 -0.000000 -0.000007 -0.000004 0.000010 0.000000 0.000001 0.000000 -0.000001 -0.000000 -0.000000 -0.000003 -0.000005 -0.000009 0.000002 0.000000 0.000000 1.426653 5.808499 -0.757383 -5.272152 -1.488077 0.077413 2.963097 0.936335 -1.241648 1.053474 -5.260433 1.698791 0.000000 0.000002 0.000000 0.000000 -0.000000 -0.000000 9.750158 -6.533944 4.853004 -46.260513 11.992384 3.797471 78.351798 -8.371643 6.284614 17.089601 4.137308 -4.253533 0.000004 0.000000 -0.000000 -0.000003 0.000000 -0.000000 -0.167321 -4.580589 -4.181630 -0.023957 -3.570786 -0.768374 0.014218 -4.050805 0.401935 0.011192 -4.058426 0.315867 -0.013538 -4.052673 -0.382630 -0.000002 0.000001 0.000001 -0.000001 -0.000002 -0.000001 0.000000 -0.000000 -0.000000 -0.032506 -3.960821 -0.940002 
2.412920 66.749695 102.893852 -0.000000 0.000000 1.246872 -3.052240 0.505264 -9.392340 2.277783 -0.074780 5.266689 4.269931 0.358587 5.922356 7.048963 1.097120 5.885630 -10.574577 -0.000433 -9.028052 0.433199 -1.634063 -0.153419 -14.252504 5.412685 2.387637 -4.935632 -0.000004 -0.000004 -17.921534 0.882801 -2.410933 36.519761 -3.426316 1.575393 0.345418 -0.014126 0.008994 0.000000 0.000000 0.000000 32.885810 19.216584 -6.150691 -28.665935 -26.500016 -2.937729 18.759278 0.000013 -0.000007 -20.597656 2.397559 -0.956000 12.062278 4.245490 -0.943889 -0.000001 0.000056 0.000000 -0.000002 -0.000000 -0.000000 -0.217856 -0.000002 0.000006 0.010426 0.000002 -0.000000 8.188466 0.000005 0.000005 -23.549072 0.000005 -0.000008 0.000002 -0.000000 -0.000000 -0.000002 0.000000 -0.000000 -0.146788 0.543538 0.126085 -0.036905 0.556954 0.145572 0.000002 0.000001 -0.000000 -0.146808 -0.543558 -0.126078 -0.036908 -0.556979 -0.145579 0.000001 0.000001 -0.000000 0.006745 1.796579 -0.430418 0.000001 0.000000 0.000000 4.700112 5.397432 -1.834166 -3.924667 -1.107180 0.070654 2.724912 0.911446 -0.918714 -3.392300 -5.384261 0.941409 0.000000 0.000002 0.000000 0.000000 0.000000 -0.000000 6.304172 -6.626872 3.465558 -44.538789 11.632004 3.490878 74.061210 -8.466154 5.996766 19.257630 3.937429 -4.574814 0.000006 -0.000000 -0.000000 -0.000001 -0.000000 0.000000 -0.159560 -4.473475 -4.083272 -0.023402 -3.529233 -0.759412 0.013476 -3.944140 0.391317 0.010608 -3.951544 0.307522 -0.012832 -3.945963 -0.372522 -0.000001 -0.000001 0.000001 -0.000001 -0.000002 -0.000000 -0.001297 -0.787112 -0.186509 -0.030815 -3.856532 -0.915173 
2.186990 66.749695 102.630112 -0.000000 0.000000 2.475183 -3.360780 0.533301 -9.014346 2.477716 -0.066149 4.063692 4.118062 0.293653 5.259516 6.527078 0.924497 5.371642 -9.763008 -0.001613 -8.229951 1.440672 -5.243786 -0.409974 -12.437533 9.676877 2.926030 -9.173519 -0.000008 -0.000001 -18.651698 0.839614 -2.384312 38.282585 -3.730113 1.749442 2.979971 -0.123236 0.081154 -0.000000 0.000000 0.000000 31.355916 18.511800 -5.391871 -34.049207 -25.140417 -5.940937 31.629940 0.000014 -0.000014 -1.836305 3.903457 -3.381871 15.536975 2.302854 -0.578355 -0.000001 0.000022 0.000000 0.000005 0.000000 0.000000 -0.217855 -0.000002 0.000006 0.042907 -0.000002 0.000004 8.541958 0.000006 0.000000 -23.549077 0.000005 -0.000008 0.000002 0.000000 -0.000000 -0.000003 -0.000000 -0.000000 -0.494897 1.813734 0.426548 -0.128797 1.859439 0.487635 0.000000 0.000002 0.000001 -0.494921 -1.813790 -0.426559 -0.128803 -1.859507 -0.487656 -0.000000 0.000000 0.000000 0.057001 5.213470 -1.252123 0.000000 0.000000 -0.000000 7.249315 4.753766 -2.834585 -2.543993 -0.717143 0.054447 3.465373 1.099498 -0.569089 -8.142091 -5.516865 0.135696 -0.000000 0.000002 0.000000 -0.000000 -0.000000 -0.000000 2.182030 -6.295346 1.801165 -40.075015 10.652992 2.747330 63.282379 -9.018834 5.122422 20.448504 4.381033 -5.019325 0.000001 0.000000 -0.000000 -0.000005 0.000000 -0.000000 -0.139990 -4.190862 -3.823944 -0.021948 -3.418573 -0.735541 0.011630 -3.665052 0.363548 0.009158 -3.671932 0.285700 -0.011078 -3.666737 -0.346086 0.000000 -0.000001 0.000001 -0.000002 -0.000003 -0.000000 -0.012464 -2.447467 -0.580245 -0.026600 -3.583656 -0.850238 
1.846162 66.749695 102.278625 -0.000000 0.000000 3.619521 -3.785753 0.544444 -8.186998 2.785700 -0.050710 2.611743 3.894935 0.212460 4.320936 5.789090 0.696577 4.580233 -8.617715 -0.002902 -7.007345 2.770018 -9.396874 -0.553194 -11.657647 14.289104 3.381373 -9.173517 -0.000006 0.000002 -21.609354 0.571852 -2.415806 38.450605 -3.905722 1.796794 5.832559 -0.248045 0.164864 0.000000 -0.000000 0.000000 29.049587 17.391116 -4.321152 -37.125268 -23.842302 -8.387954 37.969039 0.000019 -0.000018 20.460585 14.002695 -5.939576 18.112217 -8.402002 2.357013 0.000000 -0.000155 -0.000000 0.000001 -0.000000 0.000000 -0.217857 -0.000002 0.000006 0.081862 -0.000002 -0.000001 8.965206 0.000014 -0.000006 -23.549075 0.000005 -0.000008 0.000002 0.000000 -0.000000 0.000000 -0.000000 0.000000 -0.953709 3.447275 0.825462 -0.258804 3.536489 0.931932 -0.000001 0.000002 -0.000001 -0.953742 -3.447389 -0.825489 -0.258813 -3.536611 -0.931966 0.000000 0.000001 0.000000 0.121984 7.610554 -1.833856 0.000001 0.000001 -0.000000 9.218706 3.996065 -3.753030 -1.451010 -0.408722 0.034953 5.192856 1.481210 -0.193262 -13.023032 -5.611131 -0.698729 -0.000000 0.000002 0.000000 -0.000000 0.000000 -0.000000 -2.307674 -5.586013 0.045358 -33.134122 9.013358 1.747872 48.428575 -9.131041 3.849274 20.744574 4.984509 -5.372581 0.000003 0.000000 -0.000000 -0.000002 -0.000000 0.000000 -0.112441 -3.755775 -3.425237 -0.019798 -3.246291 -0.698388 0.009087 -3.240120 0.321301 0.007154 -3.246203 0.252500 -0.008656 -3.241609 -0.305869 -0.000001 -0.000002 0.000001 -0.000001 -0.000004 -0.000000 -0.036383 -4.186290 -0.993699 -0.020782 -3.168188 -0.751446 
1.414391 66.749702 101.904709 -0.000000 0.000000 4.612618 -4.253315 0.519093 -6.963856 3.082079 -0.021967 0.989187 3.622431 0.131289 3.168373 4.926760 0.458483 3.555400 -7.286334 -0.003384 -5.438629 4.629105 -13.021456 -0.542338 -10.932122 18.464231 3.487952 -9.173519 -0.000006 -0.000002 -23.928077 0.009438 -2.538597 37.615699 -3.838163 1.692106 8.374557 -0.350090 0.232725 -0.000001 0.000000 -0.000000 26.141161 15.884271 -3.102572 -40.140636 -21.348835 -10.275214 43.796894 0.000021 -0.000019 32.287011 16.252707 -6.739907 17.827880 -11.443860 3.163324 -0.000001 -0.000166 -0.000000 -0.000001 -0.000000 -0.000000 -0.217856 -0.000002 0.000006 0.115287 0.000002 -0.000013 9.327801 0.000007 -0.000002 -23.549082 0.000005 -0.000008 0.000003 -0.000000 0.000000 -0.000002 0.000000 -0.000000 -1.422925 5.070389 1.236582 -0.401495 5.205157 1.379069 0.000000 0.000002 -0.000000 -1.422971 -5.070557 -1.236617 -0.401515 -5.205327 -1.379116 0.000000 0.000000 0.000001 0.072720 5.885163 -1.414643 0.000001 -0.000000 0.000000 10.709201 3.225544 -4.575399 -0.844581 -0.237789 0.021600 7.794129 2.028572 0.197841 -17.854856 -5.643717 -1.531279 0.000000 0.000002 0.000000 0.000000 0.000000 0.000000 -7.214884 -4.526908 -1.639412 -23.939856 6.657916 0.742478 31.654088 -7.881266 2.529126 20.294988 5.070323 -5.321881 0.000006 0.000000 -0.000000 0.000001 0.000000 0.000000 -0.081337 -3.192351 -2.909768 -0.017133 -3.020232 -0.649658 0.006296 -2.697125 0.267369 0.004955 -2.702192 0.210116 -0.005995 -2.698367 -0.254526 0.000001 -0.000001 0.000000 0.000000 -0.000001 -0.000000 -0.055893 -5.187686 -1.232610 -0.014394 -2.637266 -0.625318 
